<svg xmlns="http://www.w3.org/2000/svg" xmlns:xlink="http://www.w3.org/1999/xlink" version="1.1" x="0px" y="0px" viewBox="0 0 48 60" style="enable-background:new 0 0 48 48;" xml:space="preserve"><g><g><circle cx="20" cy="23" r="1"/><circle cx="28" cy="23" r="1"/><path d="M27,30c-0.6,0-1,0.4-1,1v0.4c0,0.3-0.2,0.5-0.5,0.5S25,31.7,25,31.4v-1.1l1.8-2.7c0.2-0.3,0.2-0.7,0-1S26.4,26,26,26h-4    c-0.4,0-0.7,0.2-0.9,0.5c-0.2,0.3-0.2,0.7,0,1l1.8,2.7v1.1c0,0.3-0.2,0.5-0.5,0.5S22,31.7,22,31.4V31c0-0.6-0.4-1-1-1s-1,0.4-1,1    v0.4c0,1.4,1.1,2.5,2.5,2.5c0.6,0,1.1-0.2,1.5-0.5c0.4,0.3,0.9,0.5,1.5,0.5c1.4,0,2.5-1.1,2.5-2.5V31C28,30.4,27.6,30,27,30z"/><path d="M42,26h-4.1c0-0.3,0.1-0.7,0.1-1c0-1.8-0.4-3.4-1-4.9c1-5.2-1-10.5-2.3-11.8c-0.3-0.3-0.8-0.4-1.2-0.2    c-0.3,0.1-0.6,0.3-0.9,0.4c-1.9,0.9-4.4,2.1-5.5,4.8c-1-0.2-2.1-0.3-3.2-0.3s-2.2,0.1-3.2,0.3c-1.1-2.7-3.6-3.9-5.5-4.8    c-0.3-0.1-0.6-0.3-0.9-0.4c-0.4-0.2-0.9-0.1-1.2,0.2C12,9.6,10,14.9,11,20.1c-0.7,1.5-1,3.1-1,4.9c0,0.3,0,0.7,0.1,1H6    c-0.6,0-1,0.4-1,1s0.4,1,1,1h4.3c0.2,0.9,0.5,1.8,0.9,2.6L9.7,31c-0.5,0.2-0.8,0.7-0.7,1.2c0.1,0.4,0.5,0.7,1,0.7    c0.1,0,0.2,0,0.3,0l1.9-0.5C14.6,36.4,19,39,24,39s9.4-2.6,11.8-6.6l1.9,0.5c0.1,0,0.2,0,0.3,0c0.4,0,0.8-0.3,1-0.7    c0.2-0.5-0.2-1.1-0.7-1.2l-1.5-0.4c0.4-0.8,0.7-1.7,0.9-2.6H42c0.6,0,1-0.4,1-1S42.6,26,42,26z M33.6,10.3c0,0,0.1,0,0.1-0.1    c0.7,1.2,1.6,4.1,1.6,7.2c-1.5-1.7-3.6-3-6.1-3.7C30.1,12,31.9,11.1,33.6,10.3z M14.3,10.3c0,0,0.1,0,0.1,0.1    c1.6,0.8,3.5,1.6,4.3,3.4c-2.5,0.7-4.6,2-6.1,3.7C12.7,14.3,13.6,11.5,14.3,10.3z M34.9,30.1l-3.6-1c-0.5-0.1-1.1,0.2-1.2,0.7    c-0.2,0.5,0.2,1.1,0.7,1.2l3.1,0.9C31.7,35,28.1,37,24,37s-7.7-2-9.8-5.1l3.1-0.9c0.5-0.2,0.8-0.7,0.7-1.2    c-0.2-0.5-0.7-0.8-1.2-0.7l-3.6,1c-0.3-0.7-0.6-1.3-0.7-2.1H17c0.6,0,1-0.4,1-1s-0.4-1-1-1h-4.9c0-0.3-0.1-0.7-0.1-1    c0-7.4,6.5-10,12-10s12,2.6,12,10c0,0.3,0,0.7-0.1,1H31c-0.6,0-1,0.4-1,1s0.4,1,1,1h4.6C35.4,28.7,35.2,29.4,34.9,30.1z"/></g></g></svg>