<svg xmlns="http://www.w3.org/2000/svg" viewBox="0 0 68 62.5" x="0px" y="0px"><path fill="#E6FFFF" fill-rule="evenodd" d="M60.8476238,101.338344 C60.3071351,100.345752 60,99.2083434 60,98 C60,94.1341277 63.137766,91 67.0045213,91 L69,91 L69,81.8954986 C68.0049494,81.8060482 67.0136237,81.6629263 66.0661391,81.4523741 C64.08192,81.0114365 62.4581482,80.3299896 61.3916023,79.3109843 L59.6324555,79.8973666 C58.5845689,80.2466621 57.4519289,79.6803422 57.1026334,78.6324555 C56.7533379,77.5845689 57.3196578,76.4519289 58.3675445,76.1026334 L60.0150391,75.5534685 C60.1684989,73.2845628 61.4865028,71.3039825 63.5141672,69.5608398 C64.6705263,68.5667409 65.8137859,67.8446633 66.6442469,67.4156632 C68.836002,66.0447885 72.4425145,65 75.009763,65 C79.4233954,65 83,68.5807051 83,72.9975713 L83,91 L100.995479,91 C104.861971,91 108,94.1376278 108,98 C108,98.8997542 107.83003,99.7598704 107.520457,100.55006 L121.154229,94.1876337 C122.480192,93.5688511 124,94.5367608 124,96 L124,99.5063976 C124,104.478741 120.340811,109.758197 115.684414,111.504346 L106.702247,114.872658 C106.343751,115.007094 105.980976,115.032256 105.642596,114.970205 C105.427888,114.989923 105.210351,115 104.99042,115 L63.0095798,115 C59.1407479,115 56,111.862825 56,108 C56,104.884041 58.0318834,102.247027 60.8476238,101.338344 L60.8476238,101.338344 Z M60,108 C60,109.652666 61.3488683,111 63.0095798,111 L104.99042,111 C106.658456,111 108,109.659452 108,108 C108,106.347334 106.651132,105 104.99042,105 L63.0095798,105 C61.3415444,105 60,106.340548 60,108 Z M110.441438,103.601055 C111.415996,104.803533 112,106.334301 112,108 C112,108.210405 111.990735,108.418625 111.972591,108.624278 L114.27992,107.759029 C117.375202,106.598298 120,102.811256 120,99.5063976 L120,99.1403927 L110.441438,103.601055 Z M64,98 C64,99.6531187 65.3470536,101 67.0045213,101 L100.995479,101 C102.654133,101 104,99.6556937 104,98 C104,96.3468813 102.652946,95 100.995479,95 L67.0045213,95 C65.3458668,95 64,96.3443063 64,98 Z M79,91 L79,72.9975713 C79,70.7888187 77.2132298,69 75.009763,69 C73.1725219,69 70.2525884,69.8539048 68.7147148,70.8390114 L68.5372306,70.940303 C68.4117907,71.0036268 68.1551724,71.1461807 67.8130003,71.3593892 C67.2338253,71.7202748 66.6545258,72.1360576 66.1217664,72.5940602 C64.7588954,73.7656933 64,74.9567127 64,76 C64,76.4742235 64.9482248,77.1063734 66.9338609,77.5476259 C67.8136009,77.7431236 68.7760495,77.8714501 69.7414934,77.9429645 C70.0814351,77.9681454 70.3962679,77.9842906 70.6767413,77.9931945 C70.8394188,77.9983589 70.9501921,78 71,78 C72.1045695,78 73,78.8954305 73,80 L73,91 L79,91 Z" transform="translate(-56 -65)"/></svg>